<svg width="26" height="24" viewBox="0 0 26 24" fill="none" xmlns="http://www.w3.org/2000/svg">
<path d="M14.1482 11.2167V22.808C14.1482 23.0642 14.0464 23.3099 13.8653 23.491C13.6841 23.6722 13.4384 23.7739 13.1823 23.7739C12.9261 23.7739 12.6804 23.6722 12.4992 23.491C12.3181 23.3099 12.2163 23.0642 12.2163 22.808V11.2167C12.2163 10.9605 12.3181 10.7148 12.4992 10.5337C12.6804 10.3525 12.9261 10.2507 13.1823 10.2507C13.4384 10.2507 13.6841 10.3525 13.8653 10.5337C14.0464 10.7148 14.1482 10.9605 14.1482 11.2167ZM21.8757 19.9102C21.6195 19.9102 21.3739 20.0119 21.1927 20.1931C21.0116 20.3742 20.9098 20.6199 20.9098 20.8761V22.808C20.9098 23.0642 21.0116 23.3099 21.1927 23.491C21.3739 23.6722 21.6195 23.7739 21.8757 23.7739C22.1319 23.7739 22.3776 23.6722 22.5588 23.491C22.7399 23.3099 22.8417 23.0642 22.8417 22.808V20.8761C22.8417 20.6199 22.7399 20.3742 22.5588 20.1931C22.3776 20.0119 22.1319 19.9102 21.8757 19.9102ZM24.7736 14.1145H22.8417V1.55725C22.8417 1.30107 22.7399 1.05538 22.5588 0.874227C22.3776 0.693077 22.1319 0.591309 21.8757 0.591309C21.6195 0.591309 21.3739 0.693077 21.1927 0.874227C21.0116 1.05538 20.9098 1.30107 20.9098 1.55725V14.1145H18.9779C18.7217 14.1145 18.476 14.2163 18.2949 14.3974C18.1137 14.5786 18.012 14.8243 18.012 15.0804V17.0123C18.012 17.2685 18.1137 17.5142 18.2949 17.6954C18.476 17.8765 18.7217 17.9783 18.9779 17.9783H24.7736C25.0297 17.9783 25.2754 17.8765 25.4566 17.6954C25.6377 17.5142 25.7395 17.2685 25.7395 17.0123V15.0804C25.7395 14.8243 25.6377 14.5786 25.4566 14.3974C25.2754 14.2163 25.0297 14.1145 24.7736 14.1145ZM4.48877 16.0464C4.23259 16.0464 3.98689 16.1482 3.80575 16.3293C3.6246 16.5105 3.52283 16.7561 3.52283 17.0123V22.808C3.52283 23.0642 3.6246 23.3099 3.80575 23.491C3.98689 23.6722 4.23259 23.7739 4.48877 23.7739C4.74495 23.7739 4.99064 23.6722 5.17179 23.491C5.35294 23.3099 5.45471 23.0642 5.45471 22.808V17.0123C5.45471 16.7561 5.35294 16.5105 5.17179 16.3293C4.99064 16.1482 4.74495 16.0464 4.48877 16.0464ZM7.3866 10.2507H5.45471V1.55725C5.45471 1.30107 5.35294 1.05538 5.17179 0.874227C4.99064 0.693077 4.74495 0.591309 4.48877 0.591309C4.23259 0.591309 3.98689 0.693077 3.80575 0.874227C3.6246 1.05538 3.52283 1.30107 3.52283 1.55725V10.2507H1.59094C1.33476 10.2507 1.08907 10.3525 0.907918 10.5337C0.726769 10.7148 0.625 10.9605 0.625 11.2167V13.1486C0.625 13.4047 0.726769 13.6504 0.907918 13.8316C1.08907 14.0127 1.33476 14.1145 1.59094 14.1145H7.3866C7.64278 14.1145 7.88847 14.0127 8.06962 13.8316C8.25077 13.6504 8.35254 13.4047 8.35254 13.1486V11.2167C8.35254 10.9605 8.25077 10.7148 8.06962 10.5337C7.88847 10.3525 7.64278 10.2507 7.3866 10.2507ZM16.0801 4.45508H14.1482V1.55725C14.1482 1.30107 14.0464 1.05538 13.8653 0.874227C13.6841 0.693077 13.4384 0.591309 13.1823 0.591309C12.9261 0.591309 12.6804 0.693077 12.4992 0.874227C12.3181 1.05538 12.2163 1.30107 12.2163 1.55725V4.45508H10.2844C10.0282 4.45508 9.78255 4.55685 9.6014 4.738C9.42025 4.91915 9.31848 5.16484 9.31848 5.42102V7.35291C9.31848 7.60909 9.42025 7.85478 9.6014 8.03593C9.78255 8.21708 10.0282 8.31885 10.2844 8.31885H16.0801C16.3363 8.31885 16.582 8.21708 16.7631 8.03593C16.9443 7.85478 17.046 7.60909 17.046 7.35291V5.42102C17.046 5.16484 16.9443 4.91915 16.7631 4.738C16.582 4.55685 16.3363 4.45508 16.0801 4.45508Z" fill="white"/>
</svg>
